<svg xmlns="http://www.w3.org/2000/svg" width="212" height="201" fill="none" viewBox="0 0 212 201"><path fill="#fff" d="M97.6 0H112.5V66.5775L97.5 71.7879V31.5109C62.8488 35.7054 36 65.2172 36 101C36 136.783 62.8488 166.295 97.5 170.489V127.257L112.5 122.046V201H97.6C63.4368 201 46.3552 201 33.3066 194.351C21.8287 188.503 12.4969 179.171 6.6486 167.693C0 154.645 0 137.563 0 103.4V97.6C0 63.4368 0 46.3552 6.6486 33.3066C12.4969 21.8287 21.8287 12.4969 33.3066 6.6486C46.3552 0 63.4368 0 97.6 0Z"/><path fill="#fff" d="M176 101C176 134.689 152.202 162.819 120.5 169.496V200.998C150.645 200.975 166.446 200.592 178.693 194.351C190.171 188.503 199.503 179.171 205.351 167.693C212 154.645 212 137.563 212 103.4V97.6C212 63.4368 212 46.3552 205.351 33.3066C199.503 21.8287 190.171 12.4969 178.693 6.6486C166.446 0.408038 150.645 0.0250422 120.5 0.00153689V32.5037C152.202 39.1813 176 67.3115 176 101Z"/><path fill="#fff" fill-rule="evenodd" d="M118.319 111.989L118.382 111.882L118.438 111.863L118.412 111.831L146.578 63.5775L93.6532 81.4854L93.5983 81.418L93.5358 81.5251L93.4794 81.5442L93.5058 81.5765L65.34 129.83L118.265 111.922L118.319 111.989ZM117.999 97.5C117.999 101.032 116.406 104.192 113.901 106.301C111.9 107.985 109.318 109 106.499 109C100.147 109 94.9986 103.851 94.9986 97.5C94.9986 93.8451 96.7037 90.5884 99.3617 88.4819C101.323 86.928 103.802 86 106.499 86C112.85 86 117.999 91.1487 117.999 97.5Z" clip-rule="evenodd"/></svg>